G04 EAGLE Gerber RS-274X export*
G75*
%MOMM*%
%FSLAX34Y34*%
%LPD*%
%IN*%
%IPPOS*%
%AMOC8*
5,1,8,0,0,1.08239X$1,22.5*%
G01*
%ADD10C,0.254000*%


D10*
X-50800Y12700D02*
X923800Y12700D01*
X923800Y876200D01*
X-50800Y876200D01*
X-50800Y12700D01*
X-7700Y837919D02*
X-7763Y837361D01*
X-7888Y836814D01*
X-8073Y836284D01*
X-8317Y835778D01*
X-8616Y835302D01*
X-8966Y834863D01*
X-9363Y834466D01*
X-9802Y834116D01*
X-10278Y833817D01*
X-10784Y833573D01*
X-11314Y833388D01*
X-11861Y833263D01*
X-12419Y833200D01*
X-12981Y833200D01*
X-13539Y833263D01*
X-14086Y833388D01*
X-14616Y833573D01*
X-15122Y833817D01*
X-15598Y834116D01*
X-16037Y834466D01*
X-16434Y834863D01*
X-16784Y835302D01*
X-17083Y835778D01*
X-17327Y836284D01*
X-17512Y836814D01*
X-17637Y837361D01*
X-17700Y837919D01*
X-17700Y838481D01*
X-17637Y839039D01*
X-17512Y839586D01*
X-17327Y840116D01*
X-17083Y840622D01*
X-16784Y841098D01*
X-16434Y841537D01*
X-16037Y841934D01*
X-15598Y842284D01*
X-15122Y842583D01*
X-14616Y842827D01*
X-14086Y843012D01*
X-13539Y843137D01*
X-12981Y843200D01*
X-12419Y843200D01*
X-11861Y843137D01*
X-11314Y843012D01*
X-10784Y842827D01*
X-10278Y842583D01*
X-9802Y842284D01*
X-9363Y841934D01*
X-8966Y841537D01*
X-8616Y841098D01*
X-8317Y840622D01*
X-8073Y840116D01*
X-7888Y839586D01*
X-7763Y839039D01*
X-7700Y838481D01*
X-7700Y837919D01*
X-7700Y50519D02*
X-7763Y49961D01*
X-7888Y49414D01*
X-8073Y48884D01*
X-8317Y48378D01*
X-8616Y47902D01*
X-8966Y47463D01*
X-9363Y47066D01*
X-9802Y46716D01*
X-10278Y46417D01*
X-10784Y46173D01*
X-11314Y45988D01*
X-11861Y45863D01*
X-12419Y45800D01*
X-12981Y45800D01*
X-13539Y45863D01*
X-14086Y45988D01*
X-14616Y46173D01*
X-15122Y46417D01*
X-15598Y46716D01*
X-16037Y47066D01*
X-16434Y47463D01*
X-16784Y47902D01*
X-17083Y48378D01*
X-17327Y48884D01*
X-17512Y49414D01*
X-17637Y49961D01*
X-17700Y50519D01*
X-17700Y51081D01*
X-17637Y51639D01*
X-17512Y52186D01*
X-17327Y52716D01*
X-17083Y53222D01*
X-16784Y53698D01*
X-16434Y54137D01*
X-16037Y54534D01*
X-15598Y54884D01*
X-15122Y55183D01*
X-14616Y55427D01*
X-14086Y55612D01*
X-13539Y55737D01*
X-12981Y55800D01*
X-12419Y55800D01*
X-11861Y55737D01*
X-11314Y55612D01*
X-10784Y55427D01*
X-10278Y55183D01*
X-9802Y54884D01*
X-9363Y54534D01*
X-8966Y54137D01*
X-8616Y53698D01*
X-8317Y53222D01*
X-8073Y52716D01*
X-7888Y52186D01*
X-7763Y51639D01*
X-7700Y51081D01*
X-7700Y50519D01*
X906700Y50519D02*
X906637Y49961D01*
X906512Y49414D01*
X906327Y48884D01*
X906083Y48378D01*
X905784Y47902D01*
X905434Y47463D01*
X905037Y47066D01*
X904598Y46716D01*
X904122Y46417D01*
X903616Y46173D01*
X903086Y45988D01*
X902539Y45863D01*
X901981Y45800D01*
X901419Y45800D01*
X900861Y45863D01*
X900314Y45988D01*
X899784Y46173D01*
X899278Y46417D01*
X898802Y46716D01*
X898363Y47066D01*
X897966Y47463D01*
X897616Y47902D01*
X897317Y48378D01*
X897073Y48884D01*
X896888Y49414D01*
X896763Y49961D01*
X896700Y50519D01*
X896700Y51081D01*
X896763Y51639D01*
X896888Y52186D01*
X897073Y52716D01*
X897317Y53222D01*
X897616Y53698D01*
X897966Y54137D01*
X898363Y54534D01*
X898802Y54884D01*
X899278Y55183D01*
X899784Y55427D01*
X900314Y55612D01*
X900861Y55737D01*
X901419Y55800D01*
X901981Y55800D01*
X902539Y55737D01*
X903086Y55612D01*
X903616Y55427D01*
X904122Y55183D01*
X904598Y54884D01*
X905037Y54534D01*
X905434Y54137D01*
X905784Y53698D01*
X906083Y53222D01*
X906327Y52716D01*
X906512Y52186D01*
X906637Y51639D01*
X906700Y51081D01*
X906700Y50519D01*
X894000Y837919D02*
X893937Y837361D01*
X893812Y836814D01*
X893627Y836284D01*
X893383Y835778D01*
X893084Y835302D01*
X892734Y834863D01*
X892337Y834466D01*
X891898Y834116D01*
X891422Y833817D01*
X890916Y833573D01*
X890386Y833388D01*
X889839Y833263D01*
X889281Y833200D01*
X888719Y833200D01*
X888161Y833263D01*
X887614Y833388D01*
X887084Y833573D01*
X886578Y833817D01*
X886102Y834116D01*
X885663Y834466D01*
X885266Y834863D01*
X884916Y835302D01*
X884617Y835778D01*
X884373Y836284D01*
X884188Y836814D01*
X884063Y837361D01*
X884000Y837919D01*
X884000Y838481D01*
X884063Y839039D01*
X884188Y839586D01*
X884373Y840116D01*
X884617Y840622D01*
X884916Y841098D01*
X885266Y841537D01*
X885663Y841934D01*
X886102Y842284D01*
X886578Y842583D01*
X887084Y842827D01*
X887614Y843012D01*
X888161Y843137D01*
X888719Y843200D01*
X889281Y843200D01*
X889839Y843137D01*
X890386Y843012D01*
X890916Y842827D01*
X891422Y842583D01*
X891898Y842284D01*
X892337Y841934D01*
X892734Y841537D01*
X893084Y841098D01*
X893383Y840622D01*
X893627Y840116D01*
X893812Y839586D01*
X893937Y839039D01*
X894000Y838481D01*
X894000Y837919D01*
M02*
