G04 EAGLE Gerber RS-274X export*
G75*
%MOMM*%
%FSLAX34Y34*%
%LPD*%
%INSoldermask Top*%
%IPPOS*%
%AMOC8*
5,1,8,0,0,1.08239X$1,22.5*%
G01*
%ADD10C,1.203200*%
%ADD11C,1.727200*%
%ADD12P,2.034460X8X22.500000*%
%ADD13P,2.144431X8X112.500000*%
%ADD14R,1.400000X1.600000*%
%ADD15C,3.213100*%
%ADD16P,1.852186X8X22.500000*%
%ADD17P,1.869504X8X22.500000*%
%ADD18C,2.184400*%


D10*
X-12700Y838200D03*
X-12700Y50800D03*
X901700Y50800D03*
X889000Y838200D03*
D11*
X871220Y330200D02*
X855980Y330200D01*
X855980Y304800D02*
X871220Y304800D01*
X871220Y279400D02*
X855980Y279400D01*
X855980Y254000D02*
X871220Y254000D01*
X871220Y228600D02*
X855980Y228600D01*
X855980Y393700D02*
X871220Y393700D01*
X871220Y419100D02*
X855980Y419100D01*
X855980Y444500D02*
X871220Y444500D01*
X871220Y469900D02*
X855980Y469900D01*
X855980Y495300D02*
X871220Y495300D01*
D12*
X647700Y812800D03*
X673100Y812800D03*
X647700Y762000D03*
X673100Y762000D03*
X647700Y711200D03*
X673100Y711200D03*
X647700Y660400D03*
X673100Y660400D03*
D13*
X127000Y163830D03*
X152400Y163830D03*
X177800Y163830D03*
X203200Y163830D03*
X228600Y163830D03*
X254000Y163830D03*
X279400Y163830D03*
X304800Y163830D03*
X330200Y163830D03*
X355600Y163830D03*
X127000Y292100D03*
X152400Y292100D03*
X177800Y292100D03*
X203200Y292100D03*
X228600Y292100D03*
X254000Y292100D03*
X279400Y292100D03*
X304800Y292100D03*
X330200Y292100D03*
X355600Y292100D03*
D12*
X698500Y812800D03*
X800100Y812800D03*
D14*
X739046Y812800D03*
X759554Y812800D03*
D12*
X698500Y762000D03*
X800100Y762000D03*
D14*
X739046Y762000D03*
X759554Y762000D03*
D12*
X698500Y711200D03*
X800100Y711200D03*
D14*
X739046Y711200D03*
X759554Y711200D03*
D12*
X698500Y660400D03*
X800100Y660400D03*
D14*
X739046Y660400D03*
X759554Y660400D03*
D15*
X65850Y251968D02*
X35751Y251968D01*
X35751Y292100D02*
X65850Y292100D01*
X65850Y332232D02*
X35751Y332232D01*
D16*
X63500Y419100D03*
X88900Y419100D03*
X114300Y419100D03*
X139700Y419100D03*
X165100Y419100D03*
X190500Y419100D03*
X215900Y419100D03*
X241300Y419100D03*
X266700Y419100D03*
X292100Y419100D03*
X317500Y419100D03*
X342900Y419100D03*
X368300Y419100D03*
X393700Y419100D03*
X419100Y419100D03*
X444500Y419100D03*
X469900Y419100D03*
X495300Y419100D03*
X520700Y419100D03*
X546100Y419100D03*
X571500Y419100D03*
X63500Y393700D03*
X88900Y393700D03*
X114300Y393700D03*
X139700Y393700D03*
X165100Y393700D03*
X190500Y393700D03*
X215900Y393700D03*
X241300Y393700D03*
X266700Y393700D03*
X292100Y393700D03*
X317500Y393700D03*
X342900Y393700D03*
X368300Y393700D03*
X393700Y393700D03*
X419100Y393700D03*
X444500Y393700D03*
X469900Y393700D03*
X495300Y393700D03*
X520700Y393700D03*
X546100Y393700D03*
X571500Y393700D03*
X571500Y749300D03*
X571500Y723900D03*
X546100Y749300D03*
X546100Y723900D03*
X520700Y749300D03*
X520700Y723900D03*
X495300Y749300D03*
X495300Y723900D03*
X469900Y749300D03*
X469900Y723900D03*
X444500Y749300D03*
X444500Y723900D03*
X419100Y749300D03*
X419100Y723900D03*
X393700Y749300D03*
X393700Y723900D03*
X368300Y749300D03*
X368300Y723900D03*
X342900Y749300D03*
X342900Y723900D03*
X317500Y749300D03*
X317500Y723900D03*
X292100Y749300D03*
X292100Y723900D03*
X266700Y749300D03*
X266700Y723900D03*
X241300Y749300D03*
X241300Y723900D03*
X215900Y749300D03*
X215900Y723900D03*
X190500Y749300D03*
X190500Y723900D03*
X546100Y698500D03*
X571500Y698500D03*
X546100Y673100D03*
X546100Y647700D03*
X571500Y673100D03*
X571500Y647700D03*
D17*
X685800Y546100D03*
X711200Y546100D03*
X736600Y546100D03*
X762000Y546100D03*
X787400Y546100D03*
X685800Y571500D03*
X711200Y571500D03*
X736600Y571500D03*
X762000Y571500D03*
X787400Y571500D03*
D13*
X127000Y101600D03*
X152400Y101600D03*
X177800Y101600D03*
X203200Y101600D03*
X228600Y101600D03*
X254000Y101600D03*
X279400Y101600D03*
X304800Y101600D03*
X330200Y101600D03*
X355600Y101600D03*
X393700Y101600D03*
X419100Y101600D03*
X444500Y101600D03*
X469900Y101600D03*
X495300Y101600D03*
X520700Y101600D03*
X546100Y101600D03*
X571500Y101600D03*
X596900Y101600D03*
X622300Y101600D03*
X393700Y162560D03*
X419100Y162560D03*
X444500Y162560D03*
X469900Y162560D03*
X495300Y162560D03*
X520700Y162560D03*
X546100Y162560D03*
X571500Y162560D03*
X596900Y162560D03*
X622300Y162560D03*
X393700Y292100D03*
X419100Y292100D03*
X444500Y292100D03*
X469900Y292100D03*
X495300Y292100D03*
X520700Y292100D03*
X546100Y292100D03*
X571500Y292100D03*
X596900Y292100D03*
X622300Y292100D03*
D18*
X48006Y177546D02*
X28194Y177546D01*
X28194Y127508D02*
X48006Y127508D01*
D17*
X190500Y800100D03*
X190500Y825500D03*
X215900Y800100D03*
X215900Y825500D03*
X241300Y800100D03*
X241300Y825500D03*
X266700Y800100D03*
X266700Y825500D03*
X292100Y800100D03*
X292100Y825500D03*
X317500Y800100D03*
X317500Y825500D03*
X342900Y800100D03*
X342900Y825500D03*
X368300Y800100D03*
X368300Y825500D03*
X393700Y800100D03*
X393700Y825500D03*
X419100Y800100D03*
X419100Y825500D03*
X444500Y800100D03*
X444500Y825500D03*
X469900Y800100D03*
X469900Y825500D03*
X495300Y800100D03*
X495300Y825500D03*
X520700Y800100D03*
X520700Y825500D03*
M02*
