M48
;GenerationSoftware,Autodesk,EAGLE,9.6.2*%
;CreationDate,2022-05-30T18:29:31Z*%
FMAT,2
ICI,OFF
METRIC,TZ,000.000
T5C0.813
T4C1.000
T3C1.016
T2C1.321
T1C2.007
%
G90
M71
T1
X5080Y33223
X5080Y25197
X5080Y29210
T2
X3810Y17755
X3810Y12751
T3
X71120Y57150
X73660Y57150
X76200Y57150
X86360Y33020
X86360Y30480
X86360Y27940
X86360Y25400
X86360Y22860
X86360Y39370
X86360Y41910
X86360Y44450
X86360Y46990
X86360Y49530
X78740Y57150
X12700Y10160
X15240Y10160
X17780Y10160
X20320Y10160
X22860Y10160
X25400Y10160
X27940Y10160
X12700Y16383
X15240Y16383
X17780Y16383
X20320Y16383
X22860Y16383
X25400Y16383
X27940Y16383
X30480Y16383
X33020Y16383
X35560Y16383
X12700Y29210
X15240Y29210
X17780Y29210
X20320Y29210
X22860Y29210
X25400Y29210
X27940Y29210
X30480Y29210
X33020Y29210
X35560Y29210
X30480Y10160
X33020Y10160
X35560Y10160
X39370Y10160
X41910Y10160
X44450Y10160
X46990Y10160
X49530Y10160
X52070Y10160
X54610Y10160
X57150Y10160
X59690Y10160
X62230Y10160
X39370Y16256
X41910Y16256
X44450Y16256
X46990Y16256
X49530Y16256
X52070Y16256
X54610Y16256
X57150Y16256
X59690Y16256
X62230Y16256
X39370Y29210
X41910Y29210
X44450Y29210
X46990Y29210
X49530Y29210
X52070Y29210
X54610Y29210
X57150Y29210
X59690Y29210
X62230Y29210
X19050Y80010
X21590Y80010
X21590Y82550
X24130Y80010
X24130Y82550
X26670Y80010
X26670Y82550
X29210Y80010
X29210Y82550
X31750Y80010
X31750Y82550
X34290Y80010
X34290Y82550
X36830Y80010
X36830Y82550
X39370Y80010
X39370Y82550
X41910Y80010
X41910Y82550
X44450Y80010
X44450Y82550
X46990Y80010
X46990Y82550
X49530Y80010
X49530Y82550
X52070Y80010
X52070Y82550
X19050Y82550
X68580Y54610
X71120Y54610
X73660Y54610
X76200Y54610
X78740Y54610
X68580Y57150
T4
X-1270Y5080
X90170Y5080
X88900Y83820
X31750Y72390
X29210Y74930
X29210Y72390
X26670Y74930
X26670Y72390
X24130Y74930
X24130Y72390
X21590Y74930
X21590Y72390
X16510Y41910
X19050Y74930
X19050Y72390
X54610Y69850
X57150Y69850
X54610Y67310
X54610Y64770
X-1270Y83820
X6350Y41910
X8890Y41910
X11430Y41910
X13970Y41910
X44450Y74930
X19050Y41910
X21590Y41910
X24130Y41910
X26670Y41910
X29210Y41910
X31750Y41910
X34290Y41910
X36830Y41910
X39370Y41910
X41910Y41910
X44450Y41910
X46990Y41910
X49530Y41910
X52070Y41910
X54610Y41910
X57150Y41910
X6350Y39370
X8890Y39370
X11430Y39370
X13970Y39370
X16510Y39370
X19050Y39370
X21590Y39370
X24130Y39370
X26670Y39370
X29210Y39370
X31750Y39370
X34290Y39370
X36830Y39370
X39370Y39370
X41910Y39370
X44450Y39370
X46990Y39370
X49530Y39370
X52070Y39370
X54610Y39370
X57150Y39370
X57150Y74930
X57150Y72390
X54610Y74930
X54610Y72390
X52070Y74930
X52070Y72390
X49530Y74930
X49530Y72390
X46990Y74930
X46990Y72390
X57150Y67310
X44450Y72390
X57150Y64770
X41910Y74930
X41910Y72390
X39370Y74930
X39370Y72390
X36830Y74930
X36830Y72390
X34290Y74930
X34290Y72390
X31750Y74930
T5
X64770Y81280
X67310Y81280
X64770Y76200
X67310Y76200
X64770Y71120
X67310Y71120
X64770Y66040
X67310Y66040
X69850Y81280
X69850Y76200
X80010Y76200
X69850Y71120
X80010Y71120
X69850Y66040
X80010Y66040
X80010Y81280
M30